<svg height="512pt" viewBox="-15 0 512 512" width="512pt" xmlns="http://www.w3.org/2000/svg"><path d="m480.234375 101.121094-67.5625-97.839844c-1.421875-2.054688-3.757813-3.28125-6.257813-3.28125s-4.835937 1.226562-6.257812 3.285156l-67.550781 97.835938c-1.609375 2.328125-1.792969 5.351562-.476563 7.855468 1.3125 2.5 3.90625 4.070313 6.730469 4.070313h17.144531v14.296875c-18.574218 6.140625-42.265625 3.726562-66.925781 1.199219-8.703125-.890625-17.703125-1.8125-26.542969-2.351563-26.246094-1.597656-50.183594 12.460938-61.527344 35.484375-9.570312-1.199219-19.210937 1.230469-27.238281 7.023438-9.902343 7.144531-15.714843 18.242187-15.949219 30.4375-.472656 24.808593 9.652344 50.441406 15.945313 63.898437-13.300781 4.335938-22.855469 16.003906-22.855469 29.6875 0 15.527344 12.304688 28.460938 28.425782 31.023438 3.597656 18.785156 12.699218 36.058594 26.519531 49.878906 9.367187 9.367188 20.324219 16.5625 32.261719 21.351562v14.753907h-33.574219c-8.550781 0-16.558594 2.363281-23.417969 6.460937v-13.414062h17.144531c2.824219 0 5.417969-1.566406 6.734375-4.070313 1.3125-2.503906 1.128906-5.527343-.476562-7.855469l-67.554688-97.847656c-1.417968-2.054687-3.757812-3.28125-6.257812-3.28125-1.929688 0-3.757813.738282-5.148438 2.015625v-117.800781h17.15625c2.824219 0 5.417969-1.566406 6.730469-4.070312 1.3125-2.503907 1.132813-5.527344-.476563-7.855469l-67.5625-97.835938c-1.417968-2.054687-3.757812-3.285156-6.257812-3.285156-2.496094 0-4.835938 1.230469-6.257812 3.285156l-67.550782 97.839844c-1.605468 2.324219-1.789062 5.347656-.476562 7.851563 1.3125 2.503906 3.90625 4.070312 6.734375 4.070312h17.144531v76.25c0 4.199219 3.402344 7.605469 7.601562 7.605469 4.199219 0 7.605469-3.40625 7.605469-7.605469v-83.851562c0-4.203126-3.40625-7.605469-7.605469-7.605469h-10.257812l53.0625-76.851563 53.074219 76.851563h-10.269531c-4.199219 0-7.601563 3.402343-7.601563 7.605469v147.085937l-53.464844 77.429687c-1.605469 2.324219-1.789062 5.351563-.476562 7.855469 1.316406 2.503907 3.90625 4.070313 6.734375 4.070313h17.144531v94.015625h-40.339844v-216.1875c0-4.199219-3.40625-7.601563-7.605469-7.601563-4.199218 0-7.601562 3.402344-7.601562 7.601563v223.789062c0 4.199219 3.402344 7.605469 7.601562 7.605469h416.867188c4.199219 0 7.605469-3.40625 7.605469-7.605469v-49.402343c0-4.199219-3.40625-7.605469-7.605469-7.605469s-7.601562 3.40625-7.601562 7.605469v41.800781h-52.296876v-41.246094c0-14.503906-6.707031-27.832031-18.105468-36.460937v-95.800782c14.917968-3.410156 26.011718-15.816406 26.011718-30.5625s-11.09375-27.148437-26.011718-30.5625v-29.523437c9.476562-7.65625 16.664062-17.058594 21.460937-28.164063 17.117188-39.632812-2.675781-86.136718-3.527343-88.09375-1.027344-2.371094-3.191407-4.058594-5.742188-4.476562-2.554688-.421875-5.140625.484375-6.871094 2.402344-1.667968 1.847656-3.449218 3.496093-5.324218 4.984374v-13.847656c0-4.199218-3.402344-7.605468-7.601563-7.605468h-10.257813l53.0625-76.851563 53.070313 76.851563h-10.265625c-4.199219 0-7.601562 3.40625-7.601562 7.605468v319.132813c0 4.199219 3.402343 7.605469 7.601562 7.605469s7.605469-3.40625 7.605469-7.605469v-311.527344h17.152343c2.828126 0 5.421876-1.570313 6.734376-4.070313 1.3125-2.503906 1.132812-5.53125-.476563-7.855468zm-314.113281 191.601562c0-6.675781 4.730468-12.417968 11.480468-14.929687v27.613281c0 .753906.011719 1.507812.027344 2.257812-6.761718-2.507812-11.507812-8.257812-11.507812-14.941406zm26.6875 12.683594v-29.679688c12.039062-2.242187 22.246094-9.886718 29.820312-22.480468 2.675782-4.453125 4.632813-8.894532 6.011719-12.605469 18.605469 8.46875 65.210937 25.082031 114.84375 7.203125 4.175781-1.503906 8.117187-3.203125 11.84375-5.070312v62.632812c0 44.808594-36.453125 81.265625-81.261719 81.265625-21.703125 0-42.109375-8.453125-57.457031-23.800781s-23.800781-35.753906-23.800781-57.464844zm150.695312 104.324219h-33.5625v-14.773438c19.148438-7.699219 35.273438-21.367187 46.066406-38.695312v55.203125c-4.042968-1.144532-8.246093-1.734375-12.503906-1.734375zm-6.597656 60.5-18.707031 4.675781c-2.65625.664062-4.75 2.707031-5.484375 5.347656-.730469 2.640625.015625 5.46875 1.953125 7.40625l9.40625 9.40625h-17.761719l20.546875-72.125h8.261719zm-101.570312 10.023437c-.730469-2.640625-2.828126-4.683594-5.484376-5.347656l-18.707031-4.675781 1.785157-45.289063h8.265624l20.550782 72.125h-17.769532l9.40625-9.40625c1.9375-1.9375 2.683594-4.765625 1.953126-7.40625zm8.378906-55.3125 17.851562 10.058594-16.882812 16.882812-7.675782-26.941406zm60.628906 0h6.703125l-7.675781 26.941406-16.882813-16.882812zm-30.316406 19.105469 8.957031 8.953125-9.449219 11.671875-8.84375-11.289063zm-20.167969 20.167969 10.367187 13.234375-9.066406 11.195312-5.707031-20.027343zm39.9375-.402344 4.808594 4.804688-5.589844 19.609374-9.332031-11.917968zm-19.425781 25.273438 6.25 7.980468h-12.710938zm-.304688-87.207032c7.09375 0 14.007813-.777344 20.667969-2.234375v13.253907l-20.707031 11.664062-20.703125-11.664062v-13.246094c6.738281 1.46875 13.683593 2.226562 20.742187 2.226562zm-178.5625 94.914063v-101.621094c0-4.199219-3.40625-7.601563-7.605468-7.601563h-10.253907l53.070313-76.863281 53.0625 76.863281h-10.257813c-4.199219 0-7.601562 3.402344-7.601562 7.601563v35.785156c-4.542969 7.109375-7.191407 15.546875-7.191407 24.589844v41.246094zm78.433594-41.246094c0-14.515625 10.160156-26.695313 23.742188-29.820313l-1.976563 50.078126c-.140625 3.601562 2.261719 6.804687 5.753906 7.679687l11.675781 2.917969-10.664062 10.664062h-28.53125zm200.175781 41.519531h-28.53125l-10.664062-10.664062 11.675781-2.917969c3.492188-.875 5.894531-4.078125 5.753906-7.679687l-1.976562-50.074219c3.253906.746093 6.375 2.011719 9.234375 3.785156 9.085937 5.628906 14.507812 15.359375 14.507812 26.03125zm7.90625-204.34375c0 6.449219-4.425781 12.015625-10.804687 14.652344v-29.304688c6.378906 2.636719 10.804687 8.207032 10.804687 14.652344zm-3.230469-160.042968c4.398438 14.597656 10.097657 42.210937-.074218 65.765624-6.972656 16.140626-20.5625 27.949219-40.386719 35.089844-56.074219 20.207032-110.007813-10-110.539063-10.300781-2.109374-1.214844-4.671874-1.335937-6.890624-.34375s-3.835938 2.992187-4.339844 5.371094c-.066406.308593-6.398438 28.925781-26.945313 32.582031-5.070312-10.175781-17.054687-36.910156-16.585937-61.414062.140625-7.371094 3.65625-14.078126 9.644531-18.398438 4.050781-2.921875 8.78125-4.433594 13.601563-4.433594 2.328124 0 4.679687.351563 6.984374 1.070313 3.855469 1.199219 7.976563-.824219 9.386719-4.609375 7.546875-20.277344 27.226563-33.007813 48.96875-31.6875 8.523438.519531 17.363281 1.425781 25.914063 2.300781 33 3.378906 66.988281 6.863281 91.261718-10.992187zm0 0"/><path d="m305.679688 306.152344c4.199218 0 7.605468-3.40625 7.605468-7.605469v-12.347656c0-4.199219-3.40625-7.605469-7.605468-7.605469-4.199219 0-7.605469 3.40625-7.605469 7.605469v12.347656c0 4.199219 3.40625 7.605469 7.605469 7.605469zm0 0"/><path d="m250.058594 298.546875v-12.347656c0-4.199219-3.402344-7.605469-7.601563-7.605469s-7.605469 3.40625-7.605469 7.605469v12.347656c0 4.199219 3.40625 7.605469 7.605469 7.605469s7.601563-3.40625 7.601563-7.605469zm0 0"/><path d="m301.246094 331.378906c-2.96875-2.96875-7.785156-2.96875-10.753906 0-4.386719 4.386719-10.21875 6.800782-16.425782 6.800782-6.203125 0-12.035156-2.414063-16.421875-6.800782-2.96875-2.96875-7.785156-2.96875-10.753906 0s-2.96875 7.785156 0 10.753906c7.492187 7.492188 17.335937 11.238282 27.175781 11.238282 9.84375 0 19.6875-3.746094 27.179688-11.238282 2.96875-2.96875 2.96875-7.785156 0-10.753906zm0 0"/></svg>